<?xml version="1.0" encoding="utf-8"?>
<!-- Generator: Adobe Illustrator 21.0.0, SVG Export Plug-In . SVG Version: 6.00 Build 0)  -->
<svg version="1.1" id="Capa_1" xmlns="http://www.w3.org/2000/svg" xmlns:xlink="http://www.w3.org/1999/xlink" x="0px" y="0px"
	 viewBox="0 0 512 512" style="enable-background:new 0 0 512 512;" xml:space="preserve">
<style type="text/css">
	.st0{fill:none;}
	.st1{fill:#292929;}
	.st2{fill:#F5F5F5;}
	.st3{fill:#AEAEAE;}
	.st4{fill:#858585;}
	.st5{fill:#D1D1D1;}
	.st6{fill:#7F7F7F;}
	.st7{fill:#333333;}
	.st8{fill:#FCFCFC;}
</style>
<title>Logo Reddit</title>
<path class="st0" d="M0,0"/>
<path d="M0,0"/>
<path d="M0,0"/>
<g>
	<g>
		<path class="st1" d="M348.4,201.8c32,10.2,53.3,33.2,71,60.1c29.2,44.2,46.6,92.9,53,145.5c2.1,17.1,2.4,34.3-2.2,51.1
			c-1.2,4.5-2.8,8.9-5,13c-7.1,13.6-19,19.7-34.2,17.7c-13.3-1.7-25.2-7-36.7-13.5c-18.3-10.5-36.6-21.1-55.2-31.8
			c-16.3,10.4-33.5,12.9-51.4,4.5c-17.6-8.3-26.6-22.9-29-41.8c-11.7-3.7-26-3.8-39.7-0.4c-4.8,41.2-48.1,59.5-81,37.7
			c-18.3,10.6-36.8,21.3-55.3,31.9c-10.7,6.1-21.8,11.1-34.1,13c-18.8,2.9-32.1-4.5-39.1-22.3c-5.8-14.8-6.7-30.4-5.7-46.1
			C7.8,364.1,26.1,312.6,55.8,265c1.1-1.7,2.1-3.4,3.1-5.1c6.7-8.4,13.4-16.9,20-25.3c0.7-0.7,1.4-1.5,2.1-2.2
			c1.7-1.5,3.3-2.9,5-4.4c9.8-9.2,20.6-16.9,33-22.4c28.6-12.5,59.5-3.1,78.3,15.5c-1,15.6,0.3,24.2,6.4,34.8
			c3.4,6,7.5,11.6,11.1,17.4c1.1,1.8,2.2,3.9,2.5,5.9c1.9,15.2,14.5,23.5,30,19.8c-1.9-5.5-8-9.1-7.2-15.8c0.5,0.4,1,0.7,1.5,1.1
			c3.5-4.2,7.1-8.5,10.6-12.7c0.9,0,1.8,0,2.7,0c-0.3,2.7-0.7,5.4-1.2,9c22.1-14.8,31.8-34,25.7-59.7c12.8-11.4,27.2-18.1,43.6-20.8
			c1-0.2,2-0.3,3-0.5c0.4,0,0.8-0.1,1.2-0.1c1.3,0,2.5-0.1,3.8-0.1c5.1,0.7,10.3,1.3,15.4,2l0.2,0
			C347.2,201.5,347.8,201.7,348.4,201.8z M147,264.6c-9.3,0-17.6,0-26.3,0c0,9.7,0,18.8,0,28.7c-9.8,0-19.3,0-28.7,0
			c0,9,0,17.2,0,26.3c9.7,0,19.1,0,29,0c0,10,0,19.1,0,28.5c8.8,0,17.1,0,26.3,0c0-9.7,0-18.9,0-28.9c10,0,19.2,0,28.1,0
			c0-9.2,0-17.5,0-26.3c-9.7,0-18.7,0-28.3,0C147,283.2,147,274.2,147,264.6z M342,403.1c0.1-18.2-14.1-32.7-32.4-32.9
			c-17.9-0.3-32.9,14.4-33.2,32.4c-0.3,17.6,14.9,33,32.6,33.1C327,435.8,341.8,421.1,342,403.1z M135.4,402.9
			c0,18,14.7,32.7,32.7,32.8c17.7,0.1,33-15.2,32.8-32.9c-0.1-18-15-32.8-32.9-32.6C149.7,370.3,135.3,384.7,135.4,402.9z
			 M372.7,319.5c7.1-0.1,13.1-6.4,13-13.5c-0.1-7.2-6.3-13.1-13.4-13c-7.1,0.1-13.1,6.3-12.9,13.4
			C359.5,313.7,365.6,319.7,372.7,319.5z M300.1,306.4c0.1,7.3,6,13.2,13.2,13.1c7-0.1,13.2-6.4,13-13.4c-0.1-7.2-6.1-13.1-13.3-13
			C305.7,293.2,300,299,300.1,306.4z M356.1,276.6c0-7-6.2-13.1-13.3-13.1c-7.2,0-13.2,5.9-13.2,13.1c0,7.2,6,13.3,13.1,13.3
			C349.7,289.8,356.1,283.5,356.1,276.6z M356.1,336.1c0.1-6.8-6.4-13.4-13.1-13.4c-7.1,0-13.3,6.1-13.3,13.1
			c0,7.2,5.9,13.3,13,13.3C349.7,349.2,356,343.1,356.1,336.1z"/>
		<path class="st2" d="M147,264.6c0,9.5,0,18.6,0,28.2c9.6,0,18.6,0,28.3,0c0,8.8,0,17.1,0,26.3c-8.9,0-18.1,0-28.1,0
			c0,10,0,19.2,0,28.9c-9.1,0-17.5,0-26.3,0c0-9.4,0-18.4,0-28.5c-9.8,0-19.2,0-29,0c0-9.1,0-17.2,0-26.3c9.5,0,18.9,0,28.7,0
			c0-9.9,0-19,0-28.7C129.4,264.6,137.7,264.6,147,264.6z"/>
		<path class="st2" d="M342,403.1c-0.1,18-15,32.7-32.9,32.6c-17.7-0.1-32.9-15.5-32.6-33.1c0.3-18,15.2-32.7,33.2-32.4
			C327.9,370.5,342.1,384.9,342,403.1z M309.6,383.7c-11.1,0-20,8.5-20,19c0,10.2,9.2,19.5,19.7,19.8c10.4,0.2,19.3-8.9,19.3-19.8
			C328.6,391.9,320.4,383.7,309.6,383.7z"/>
		<path class="st2" d="M135.4,402.9c0-18.2,14.3-32.6,32.6-32.7c17.9-0.1,32.8,14.6,32.9,32.6c0.1,17.6-15.2,33-32.8,32.9
			C150,435.6,135.4,420.9,135.4,402.9z M167.6,383.7c-10.8,0-18.9,8.2-18.9,19.1c0,10.9,8.8,19.9,19.3,19.7
			c10.5-0.3,19.7-9.5,19.7-19.8C187.6,392.1,178.7,383.7,167.6,383.7z"/>
		<path class="st2" d="M372.7,319.5c-7.1,0.1-13.2-5.8-13.4-13c-0.1-7.1,5.8-13.3,12.9-13.4c7.1-0.1,13.3,5.8,13.4,13
			C385.8,313.1,379.8,319.4,372.7,319.5z"/>
		<path class="st2" d="M300.1,306.4c-0.1-7.4,5.6-13.3,12.9-13.3c7.2-0.1,13.2,5.8,13.3,13c0.1,7-6.1,13.3-13,13.4
			C306.1,319.6,300.2,313.7,300.1,306.4z"/>
		<path class="st2" d="M356.1,276.6c0,6.9-6.4,13.2-13.3,13.2c-7.1,0-13.1-6.1-13.1-13.3c0-7.2,5.9-13.1,13.2-13.1
			C349.9,263.5,356.1,269.6,356.1,276.6z"/>
		<path class="st2" d="M356.1,336.1c-0.1,7-6.4,13.1-13.4,13.1c-7.1,0-13.1-6.2-13-13.3c0-7,6.3-13.2,13.3-13.1
			C349.7,322.7,356.2,329.3,356.1,336.1z"/>
		<path class="st3" d="M309.6,383.7c10.7,0,18.9,8.2,19,19c0,10.8-8.9,20-19.3,19.8c-10.4-0.2-19.7-9.5-19.7-19.8
			C289.7,392.2,298.6,383.7,309.6,383.7z"/>
		<path class="st3" d="M167.6,383.7c11.1,0,20,8.5,20.1,19c0.1,10.3-9.1,19.5-19.7,19.8c-10.5,0.3-19.3-8.7-19.3-19.7
			C148.7,391.9,156.8,383.7,167.6,383.7z"/>
	</g>
	<g>
		<g>
			<g>
				<path class="st4" d="M467.5,87c-2.6-1.6-5.2-3.2-7.8-4.8c-6.3-6.9-12.9-13.4-18.6-20.8c-2-2.6-1.5-7.2-2.1-10.9
					c4.2-3.1,8.4-6.2,12.5-9.3l-0.3,0.2c2.4-0.2,4.8-0.5,7.1-0.7c0-0.7-0.1-1.5-0.1-2.2c-1.7,0-3.5,0-5.2,0
					c-0.6-0.6-1.1-1.2-1.7-1.8c13.2-5.9,26.4-11.8,44.6-19.9C487.2,44.3,481.3,67.1,467.5,87z"/>
				<path class="st5" d="M375.4,76.2c-4.1,17-16.4,23.8-32.4,26C353.8,93.5,364.6,84.8,375.4,76.2z"/>
				<path class="st5" d="M411,53.8c-6.5,16-18.6,23.1-35.6,22.4C387.3,68.8,399.1,61.3,411,53.8z"/>
				<path class="st6" d="M309.1,262.9c-1.1-2.4-2.2-4.8-3.8-8.3c4.8-3.5,9.7-6.9,14.5-10.4c4.5-1,9-1.9,13.5-2.9
					c0.7,1.1,1.4,2.3,2.1,3.4C326.6,250.8,317.9,256.8,309.1,262.9z"/>
				<path class="st6" d="M355.6,229.6c-4.3,3.6-8.7,7.1-17.3,14.1c3.1-8.8,4.6-12.8,6-16.8l0.2,0.6c2.5-0.6,5.1-1.2,7.6-1.8
					C353.3,227,354.5,228.3,355.6,229.6z"/>
				<path class="st4" d="M433.9,50.6c-2-0.9-3.9-1.7-5.9-2.6c4.8-2.2,9.7-4.4,14.5-6.6l1.4,1.7C440.6,45.5,437.3,48,433.9,50.6z"/>
				<path class="st6" d="M393.2,207.9c-9.8,7.9-19.5,15.7-29.3,23.6c-7.1-5.9-14.1-11.8-21.2-17.7c10.6-7.4,21.1-14.8,31.7-22.1
					C380.9,196.9,387.2,202.3,393.2,207.9z"/>
				<path class="st6" d="M360.1,225.2c-1.5,1.5-3,2.9-4.5,4.4c-1.2-1.3-2.3-2.6-3.5-3.9c1.6-1.3,3.2-2.5,4.8-3.8
					C358,223,359.1,224.1,360.1,225.2z"/>
				<path class="st5" d="M443.9,43c2.6-0.6,5.1-1.2,7.7-1.7c-4.2,3.1-8.4,6.2-12.5,9.3c-1.7,0-3.4,0-5.1,0
					C437.3,48,440.6,45.5,443.9,43z"/>
				<path class="st7" d="M294.1,216.3c1.8-1,3.5-2,5.3-3.1c0.7,0.5,1.3,1.1,2,1.6c-1.2,1.8-2.5,3.6-3.7,5.3
					C296.4,218.9,295.2,217.6,294.1,216.3z"/>
			</g>
			<path class="st6" d="M202.9,276.7c5.8-4.2,11.5-8.5,20.6-15.2c8.1,7.4,17.1,15.8,29.2,26.9c-9.5,6.5-16.1,11-22.8,15.5
				C220.9,294.8,211.9,285.8,202.9,276.7z"/>
			<path class="st8" d="M255.4,281.5c9.1-13.4,18.1-26.8,27.2-40.2c4.9-7.1,10-14.1,15-21.1c1.2-1.8,2.5-3.6,3.7-5.3
				c-0.7-0.5-1.3-1.1-2-1.6c-1.8,1-3.5,2-5.3,3.1c-16.7,12.7-33.5,25.4-50.2,38.3c-5.2,4-10.3,9.6-15.5,0.1c2.5-1.4,5.6-2.3,7.5-4.3
				c51.2-51,102.3-102.1,153.2-153.3c2.1-2.1,2.6-5.7,3.9-8.5c-1.2-1.1-2.3-2.1-3.5-3.2c-19.6,14.8-39.3,29.6-62.7,47.2
				c4-11,6-16.7,8.1-22.5c2.7-2.7,5.4-5.3,8.1-8c16-2.1,28.3-9,32.4-26l0,0.1c17,0.6,29.1-6.5,35.6-22.4c5.7-1.9,11.4-3.9,17-5.8
				c2,0.9,3.9,1.7,5.9,2.6c1.7,0,3.4,0,5.1,0c0.6,3.7,0.1,8.3,2.1,10.9c5.6,7.4,12.3,13.9,18.6,20.8c-1.2,1.8-2.3,3.8-3.8,5.4
				c-61.3,61.4-122.6,122.8-184.1,184C267.4,276,260.9,278.2,255.4,281.5z"/>
			<path class="st5" d="M255.4,281.5c5.5-3.2,12-5.5,16.4-9.9C333.4,210.4,394.7,149,456,87.6c1.5-1.5,2.5-3.6,3.8-5.4
				c2.6,1.6,5.2,3.2,7.8,4.8c-12.8,22.9-25.6,45.8-38.4,68.7c0-3.5,0-7.1,0-14.9c-5.1,6-7.1,8.4-9.2,10.8c-0.4,0.6-1.1,1.2-1,1.7
				c0.2,1.2,0.8,2.3,1.2,3.4l0.3-0.4c-3.1,3-6.2,6-9.3,9l0.2-0.2c-1.6,1.5-3.1,3.1-4.7,4.6l0.2-0.2c-1.5,1.5-3.1,3.1-4.6,4.6
				l0.2-0.2c-1.5,1.5-3.1,3-4.6,4.5l0.1-0.2c-14.7,11.5-29.6,22.7-43.9,34.8c-4.2,3.5-6.4,9.5-9.5,14.3l-0.2-0.6
				c-8.2,5.8-16.3,11.5-24.5,17.3c-4.8,3.4-9.7,6.9-14.5,10.4c1.6,3.5,2.7,5.9,3.8,8.3c-13.9,10.2-27.8,20.5-43,31.7
				C262.3,290,258.9,285.7,255.4,281.5z"/>
			<path class="st5" d="M334.9,110.1c-2.1,5.7-4.1,11.5-8.1,22.5c23.4-17.6,43.1-32.4,62.7-47.2c1.2,1.1,2.3,2.1,3.5,3.2
				c-1.3,2.9-1.8,6.5-3.9,8.5c-51,51.2-102,102.3-153.2,153.3c-2,2-5,2.9-7.5,4.3c-2.6-2.1-5.2-4.3-8.2-6.7
				c23.2-31.6,45.4-62.2,68-92.5c2.8-3.8,7.4-6.2,11.2-9.2c1,2.6,2,5.2,3.9,10c2.4-4.3,4-7.1,5.6-9.9l-0.7,1.2
				c1.8-1.6,3.7-3.1,5.8-4.9c-2.9-2.5-4.5-3.9-6.1-5.3C311.6,123,320.9,114.2,334.9,110.1z"/>
			<path class="st6" d="M422.4,163c-7.4,8.9-14.8,17.8-22.2,26.7c-1.3-1.2-2.6-2.4-3.9-3.6c0.6-2.6,1.1-5.1,1.7-7.7l-0.1,0.2
				c1.5-1.5,3.1-3,4.6-4.5l-0.2,0.2c1.5-1.5,3.1-3.1,4.6-4.6l-0.2,0.2c1.6-1.5,3.1-3.1,4.7-4.6l-0.2,0.2c2.7-1.8,5.3-3.6,8-5.4
				C420.2,161.1,421.3,162.1,422.4,163z"/>
			<path class="st6" d="M420,151.7c2-2.4,4.1-4.8,9.2-10.8c0,7.8,0,11.3,0,14.9c0,1.6-0.7,2.6-2.3,2.9c-1.2-1.1-2.5-2.2-3.7-3.3
				C422.1,154.1,421,152.9,420,151.7z"/>
			<path class="st8" d="M308.9,146.4c-1.6,2.8-3.2,5.6-5.6,9.9c-1.9-4.8-2.9-7.4-3.9-10C302.6,146.3,305.8,146.3,308.9,146.4z"/>
			<path class="st6" d="M395.8,194.1c-3,3-5.9,6.1-8.9,9.1c-1.3-1.5-2.6-3-3.9-4.5c3-2.8,6-5.6,9-8.3
				C393.2,191.7,394.5,192.9,395.8,194.1z"/>
			<path class="st8" d="M308,137.3c1.6,1.4,3.2,2.8,6.1,5.3c-2.1,1.8-4,3.4-5.8,4.9C308.2,144.2,308.1,140.7,308,137.3z"/>
			<path class="st6" d="M426.8,158.7c-1.5,1.4-3,2.9-4.4,4.3c-1.1-0.9-2.2-1.9-3.2-2.9c0.4-1.2,0.8-2.5,1.3-3.7l-0.3,0.4
				c0.9-0.6,1.9-1.1,3-1.5C424.3,156.4,425.6,157.5,426.8,158.7z"/>
			<path class="st6" d="M400.1,189.7c-1.5,1.5-2.9,2.9-4.4,4.4c-1.3-1.2-2.5-2.4-3.8-3.7c1.4-1.5,2.8-2.9,4.2-4.4
				C397.5,187.3,398.8,188.5,400.1,189.7z"/>
			<path class="st7" d="M356.9,221.9c-1.6,1.3-3.2,2.5-4.8,3.8c-2.5,0.6-5.1,1.2-7.6,1.8c3.1-4.8,5.3-10.7,9.5-14.3
				c14.2-12,29.2-23.3,43.9-34.8c-0.6,2.6-1.1,5.1-1.7,7.7c-1.4,1.5-2.8,2.9-4.2,4.4c-3,2.8-6,5.6-9,8.3c-4.7,4.3-9.5,8.5-14.2,12.8
				c-2.3,2.1-4.7,4.1-7,6.2C360.1,219.1,358.5,220.5,356.9,221.9z"/>
			<path class="st7" d="M420.4,156.4c-0.5,1.2-0.9,2.4-1.3,3.7c-2.7,1.8-5.3,3.6-8,5.4C414.3,162.5,417.3,159.5,420.4,156.4z"/>
			<path class="st7" d="M423.1,155.3c-1.1,0.4-2.1,0.9-3,1.5c-0.4-1.1-1-2.2-1.2-3.4c-0.1-0.5,0.7-1.1,1-1.7
				C421,152.9,422.1,154.1,423.1,155.3z"/>
			<path class="st7" d="M411.4,165.3c-1.6,1.5-3.1,3.1-4.7,4.6C408.3,168.3,409.8,166.8,411.4,165.3z"/>
			<path class="st7" d="M406.9,169.7c-1.5,1.5-3.1,3.1-4.6,4.6C403.8,172.7,405.4,171.2,406.9,169.7z"/>
			<path class="st7" d="M402.4,174.1c-1.5,1.5-3.1,3-4.6,4.5C399.4,177.1,400.9,175.6,402.4,174.1z"/>
			<g>
				<path class="st0" d="M451.3,36.8c-2.9,1.5-5.8,3-8.8,4.5c-4.8,2.2-9.7,4.4-14.5,6.6c-5.7,1.9-11.4,3.9-17,5.8
					c-11.9,7.5-23.7,15-35.6,22.4l0-0.1c-10.8,8.7-21.6,17.3-32.4,26c-2.7,2.7-5.4,5.3-8.1,8c-14,4.1-23.3,12.9-27,27.2
					c0.1,3,0.2,6,0.3,9c0.2,0,0.5,0,0.7,0l-0.7,1.2c0-0.4,0-0.8,0-1.2c-2.9,0-5.9-0.1-8.8-0.1c-3.8,3-8.4,5.4-11.2,9.2
					c-22.6,30.3-44.8,60.9-68,92.5c2.9,2.4,5.5,4.5,8.2,6.7c5.2,9.5,10.3,3.9,15.5-0.1c16.7-12.8,33.5-25.5,50.2-38.3
					c1.2,1.3,2.3,2.6,3.5,3.9c-5,7-10.1,14-15,21.1c-9.1,13.3-18.1,26.8-27.2,40.2c3.5,4.3,7,8.6,10.7,13.2
					c15.2-11.2,29.1-21.5,43-31.7c8.8-6.1,17.5-12.1,26.3-18.2c-0.7-1.1-1.4-2.3-2.1-3.4c-4.5,1-9,1.9-13.5,2.9
					c8.2-5.8,16.3-11.5,24.5-17.3c-1.4,4-2.8,7.9-6,16.8c8.6-7,12.9-10.6,17.3-14.1c1.5-1.5,3-2.9,4.5-4.4c1.5-1.5,3-3,4.4-4.4
					c2.9-1.6,5.7-3.2,8.6-4.8c4.6-4.2,9.2-8.5,13.7-12.7c3-3,5.9-6.1,8.9-9.1c1.5-1.5,2.9-2.9,4.4-4.4c7.4-8.9,14.8-17.8,22.2-26.7
					c1.5-1.4,3-2.9,4.4-4.3c1.6-0.4,2.4-1.3,2.3-2.9c12.8-22.9,25.6-45.8,38.4-68.7c13.7-19.9,19.7-42.7,28.4-70.2
					C477.7,25,464.5,30.9,451.3,36.8z"/>
				<path class="st7" d="M308.9,146.4c-0.2,0-0.5,0-0.7,0c0,0.4,0,0.8,0,1.2L308.9,146.4z"/>
				<path class="st7" d="M302.6,123.1c-19.3,21.6-38,40-67.1,45.1c-1.5,0.3-2.9,0.6-4.2,0.9l-24.4,21.8
					c-24.8,25.8-49.2,51-68.3,80.4c1.2,1.1,2.4,2.1,3.6,3.2c18.1-7.7,36.2-15.4,54.3-23.1c1.8-0.3,3.6-0.6,8.5-1.4
					c-3.4,2.9-4.6,4-5.8,5c-2,3.6-4.1,7.2-7.8,13.7c3.3,2.4,7.4,5.2,11.4,8c5.8-4.2,11.5-8.5,20.6-15.2c8.1,7.4,17.1,15.8,29.2,26.9
					c-9.5,6.5-16.1,11-22.8,15.5c5.1,7.1,10.3,14.2,15.4,21.4c1.4-1.4,2.8-2.8,4.2-4.2c4-2.4,8-4.9,12.1-7.3c1,0.7,1.9,1.4,2.9,2
					c-8.7,19.8-17.4,39.5-26.1,59.3c1.5,1.1,3,2.2,4.5,3.3c28.1-24.2,56.1-48.3,84.3-72.6l23.4-24.9c1.6-13.3,3.1-26.4,4.6-38.6
					c81.4-60.5,129.5-139,153-236C426.8,25.5,357.1,62,302.6,123.1z M429.1,155.7c0,1.6-0.7,2.6-2.3,2.9c-1.5,1.4-3,2.9-4.4,4.3
					c-7.4,8.9-14.8,17.8-22.2,26.7c-1.5,1.5-2.9,2.9-4.4,4.4c-3,3-5.9,6.1-8.9,9.1c-4.6,4.2-9.2,8.5-13.7,12.7
					c-2.9,1.6-5.7,3.2-8.6,4.8c-1.5,1.5-3,3-4.4,4.4c-1.5,1.5-3,2.9-4.5,4.4c-4.3,3.6-8.7,7.1-17.3,14.1c3.1-8.8,4.6-12.8,6-16.8
					c-8.2,5.8-16.3,11.5-24.5,17.3c4.5-1,9-1.9,13.5-2.9c0.7,1.1,1.4,2.3,2.1,3.4c-8.8,6.1-17.5,12.1-26.3,18.2
					c-13.9,10.2-27.8,20.5-43,31.7c-3.7-4.6-7.2-8.9-10.7-13.2c9.1-13.4,18.1-26.8,27.2-40.2c4.9-7.1,10-14.1,15-21.1
					c-1.2-1.3-2.3-2.6-3.5-3.9c-16.7,12.7-33.5,25.4-50.2,38.3c-5.2,4-10.3,9.6-15.5,0.1c-2.6-2.1-5.2-4.3-8.2-6.7
					c23.2-31.6,45.4-62.2,68-92.5c2.8-3.8,7.4-6.2,11.2-9.2c2.9,0,5.9,0.1,8.8,0.1c-0.1-3-0.2-6-0.3-9c3.7-14.3,12.9-23.1,27-27.2
					c2.7-2.7,5.4-5.3,8.1-8c10.8-8.7,21.6-17.3,32.4-26l0,0.1c11.9-7.5,23.7-15,35.6-22.4c5.7-1.9,11.4-3.9,17-5.8
					c4.8-2.2,9.7-4.4,14.5-6.6c2.9-1.5,5.8-3,8.8-4.5c13.2-5.9,26.4-11.8,44.6-19.9c-8.7,27.4-14.6,50.2-28.4,70.2
					C454.7,109.9,441.9,132.8,429.1,155.7z"/>
			</g>
		</g>
		<g>
			<path class="st4" d="M199.9,287.1c15.7,16,9.8,14.3,25.2,30C147,373.6,88.6,444.8,11.1,500.8c-1.9-1.8-3.7-3.6-5.6-5.4
				C69.8,426.5,134.1,357.6,199.9,287.1z"/>
			<path class="st3" d="M194.5,303.9c15.7,16-1.9-0.9,13.5,14.8c-72.9,57.5-104.9,99.1-178.4,162.1c-1.9-1.8-14.6,14.9-16.5,13.2
				C77.4,425,128.8,374.4,194.5,303.9z"/>
		</g>
	</g>
</g>
</svg>
